<?xml version="1.0"?>
<svg xmlns="http://www.w3.org/2000/svg" xmlns:xlink="http://www.w3.org/1999/xlink" version="1.1" id="Capa_1" x="0px" y="0px" viewBox="0 0 384 384" style="enable-background:new 0 0 384 384;" xml:space="preserve" width="512px" height="512px" class=""><g><g>
	<path style="fill:#B3B3B3" d="M131.68,357.28c18.88-13.68,24.72-31.2,24.72-56.32c0-41.6-33.76-75.36-75.36-75.36   c-24.96,0-40.64,7.36-54.32,26.08C44.4,300.48,82.96,339.36,131.68,357.28z" data-original="#00FFB0" class="active-path" data-old_color="#b3b3b3"/>
	<path style="fill:#B3B3B3" d="M342.16,284.48l-1.84-0.56c0,0-48.24-16.4-83.68,3.04S214.8,362,214.8,362v4.56   C268.64,359.76,314.88,328.56,342.16,284.48z" data-original="#00FFB0" class="active-path" data-old_color="#b3b3b3"/>
</g><g>
	<path style="fill:#00E6B8" d="M12.016,259.024c19.512,52.136,60.24,93.048,112.224,112.664c1.272,0.616,2.592,1.12,3.96,1.384   C148.632,380.264,170.072,384,192,384c8.256,0,16.44-0.528,24.328-1.56c0.024,0,0.048,0,0.072,0c0.016,0,0.032-0.008,0.048-0.008   s0.032,0,0.048-0.008c0.016,0,0.024-0.008,0.04-0.008c57.512-7.296,108.088-39.888,138.776-89.432   c0.016-0.024,0.032-0.04,0.04-0.056C374.096,262.736,384,227.832,384,192C384,86.128,297.864,0,192,0S0,86.128,0,192   c0,21.4,3.6,42.48,10.536,62.736C10.816,256.264,11.336,257.68,12.016,259.024z M44.696,254.664   c0.584-0.608,1.168-1.216,1.76-1.776c0.408-0.384,0.808-0.792,1.216-1.152c1.24-1.088,2.512-2.088,3.832-2.976   c0.072-0.048,0.136-0.104,0.2-0.152c1.4-0.936,2.856-1.736,4.36-2.472c0.448-0.216,0.928-0.392,1.392-0.592   c1.088-0.472,2.2-0.92,3.36-1.296c0.592-0.192,1.216-0.368,1.832-0.536c1.112-0.312,2.264-0.584,3.456-0.824   c0.664-0.128,1.328-0.264,2.016-0.376c1.296-0.208,2.664-0.36,4.056-0.496c0.64-0.064,1.248-0.144,1.912-0.184   c2.08-0.144,4.24-0.232,6.56-0.232c32.736,0,59.36,26.632,59.36,59.36c0,2.536-0.08,4.896-0.216,7.176   c-0.04,0.72-0.12,1.384-0.176,2.08c-0.12,1.52-0.272,3-0.472,4.408c-0.104,0.752-0.224,1.48-0.344,2.2   c-0.224,1.288-0.48,2.536-0.776,3.736c-0.16,0.656-0.312,1.312-0.488,1.944c-0.376,1.312-0.808,2.56-1.28,3.776   c-0.16,0.416-0.288,0.856-0.464,1.256c-0.664,1.568-1.424,3.064-2.264,4.48c-0.208,0.352-0.464,0.672-0.68,1.016   c-0.68,1.056-1.4,2.096-2.192,3.08c-0.36,0.456-0.76,0.888-1.144,1.328c-0.416,0.472-0.872,0.92-1.312,1.376   C90.616,322.472,60.824,292.448,44.696,254.664z M234.112,346.4c0.064-0.232,0.128-0.464,0.2-0.704   c0.4-1.376,0.848-2.808,1.328-4.264c0.136-0.408,0.248-0.8,0.392-1.216c0.632-1.864,1.336-3.776,2.096-5.704   c0.16-0.416,0.352-0.832,0.52-1.248c0.624-1.52,1.288-3.056,2-4.584c0.28-0.6,0.568-1.2,0.864-1.8   c0.712-1.456,1.48-2.896,2.28-4.32c0.288-0.512,0.56-1.032,0.856-1.536c1.104-1.88,2.288-3.72,3.552-5.496   c0.2-0.272,0.424-0.528,0.624-0.8c1.088-1.472,2.24-2.88,3.456-4.24c0.456-0.504,0.928-0.992,1.4-1.472   c1.08-1.12,2.216-2.176,3.392-3.176c0.504-0.424,0.992-0.864,1.512-1.272c1.696-1.32,3.456-2.552,5.344-3.584   c2.336-1.28,4.776-2.304,7.256-3.216c0.656-0.24,1.32-0.464,1.984-0.688c2.2-0.72,4.432-1.344,6.688-1.832   c0.304-0.064,0.608-0.16,0.912-0.224c2.568-0.512,5.152-0.864,7.728-1.12c0.64-0.064,1.28-0.112,1.912-0.16   c2.184-0.168,4.352-0.264,6.496-0.28c0.424,0,0.864-0.024,1.288-0.024c2.656,0.008,5.248,0.128,7.776,0.312   c0.552,0.04,1.096,0.088,1.64,0.136c2.32,0.2,4.584,0.448,6.72,0.744c0.128,0.016,0.264,0.032,0.392,0.048   C293.704,319.888,265.664,337.88,234.112,346.4z M192,32c88.224,0,160,71.776,160,160c0,25.864-6.184,51.128-17.968,73.744   c-1.032-0.24-2.144-0.48-3.296-0.728c-0.728-0.152-1.496-0.304-2.272-0.456c-0.944-0.184-1.904-0.368-2.92-0.552   c-0.76-0.136-1.52-0.264-2.312-0.392c-1.112-0.184-2.256-0.352-3.432-0.52c-0.72-0.104-1.424-0.208-2.168-0.304   c-1.832-0.24-3.728-0.448-5.68-0.632c-0.656-0.064-1.344-0.104-2.016-0.16c-1.464-0.12-2.952-0.224-4.472-0.296   c-0.8-0.04-1.6-0.08-2.408-0.104c-1.656-0.056-3.344-0.08-5.048-0.08c-0.608,0-1.192-0.016-1.8-0.008   c-2.24,0.032-4.52,0.12-6.824,0.272c-0.704,0.048-1.4,0.12-2.112,0.176c-1.728,0.144-3.464,0.32-5.208,0.544   c-0.8,0.104-1.592,0.208-2.392,0.32c-2.064,0.304-4.136,0.672-6.208,1.104c-0.376,0.08-0.744,0.128-1.112,0.216   c-2.4,0.528-4.792,1.176-7.176,1.888c-0.696,0.208-1.384,0.448-2.08,0.68c-1.8,0.592-3.584,1.24-5.368,1.952   c-0.712,0.288-1.424,0.56-2.136,0.872c-2.384,1.024-4.744,2.128-7.056,3.4c-2.416,1.328-4.688,2.808-6.88,4.36   c-0.68,0.488-1.328,1.008-1.992,1.512c-1.496,1.144-2.944,2.32-4.336,3.552c-0.672,0.6-1.336,1.2-1.984,1.816   c-1.384,1.312-2.704,2.672-3.984,4.072c-0.496,0.536-1.008,1.056-1.48,1.6c-1.704,1.96-3.336,3.968-4.856,6.032   c-0.168,0.224-0.304,0.456-0.472,0.68c-1.352,1.872-2.624,3.768-3.832,5.704c-0.416,0.664-0.8,1.328-1.2,1.992   c-0.928,1.544-1.816,3.096-2.656,4.664c-0.376,0.704-0.752,1.392-1.112,2.096c-0.872,1.696-1.688,3.392-2.472,5.08   c-0.224,0.488-0.472,0.984-0.688,1.472c-0.984,2.2-1.888,4.384-2.728,6.528c-0.128,0.328-0.232,0.648-0.36,0.976   c-0.696,1.824-1.336,3.608-1.936,5.368c-0.208,0.6-0.392,1.184-0.584,1.776c-0.488,1.504-0.944,2.96-1.368,4.392   c-0.16,0.552-0.328,1.088-0.48,1.624c-0.456,1.616-0.88,3.168-1.256,4.656c-0.056,0.24-0.128,0.488-0.192,0.72   c-0.44,1.768-0.824,3.416-1.16,4.96c-0.048,0.24-0.088,0.432-0.136,0.664c-0.192,0.888-0.384,1.784-0.536,2.576   c-13.072,0.632-26.416-0.328-39.208-2.856c0.208-0.336,0.352-0.68,0.552-1.016c0.808-1.384,1.568-2.776,2.264-4.184   c0.288-0.576,0.56-1.144,0.832-1.72c0.672-1.456,1.296-2.912,1.856-4.384c0.144-0.376,0.312-0.752,0.448-1.128   c0.672-1.832,1.256-3.664,1.776-5.496c0.136-0.464,0.24-0.928,0.36-1.4c0.376-1.424,0.712-2.848,1.008-4.272   c0.112-0.544,0.224-1.08,0.328-1.624c0.304-1.616,0.576-3.232,0.8-4.832c0.024-0.208,0.064-0.416,0.096-0.616   c0.24-1.816,0.416-3.616,0.56-5.4c0.04-0.504,0.072-0.992,0.104-1.488c0.088-1.336,0.16-2.648,0.216-3.952   c0.016-0.504,0.04-1,0.056-1.504c0.048-1.688,0.08-3.352,0.08-4.984c0-50.376-40.984-91.36-91.36-91.36   c-4.28,0-8.312,0.248-12.208,0.64c-1.232,0.128-2.392,0.344-3.592,0.504c-2.624,0.368-5.184,0.808-7.64,1.376   c-1.272,0.296-2.52,0.632-3.752,0.976c-2.312,0.656-4.552,1.424-6.72,2.28c-1.096,0.432-2.216,0.84-3.28,1.328   c-2.496,1.136-4.896,2.448-7.224,3.88c-0.496,0.304-1.04,0.504-1.528,0.816C32.896,211.736,32,201.904,32,192   C32,103.776,103.776,32,192,32z" data-original="#000A64" class="" data-old_color="#00e6b8"/>
	<path style="fill:#00E6B8" d="M261.816,225.464c25.616,0,46.456-20.848,46.456-46.464s-20.832-46.464-46.456-46.464   c-25.608,0-46.44,20.84-46.44,46.464C215.384,204.624,236.208,225.464,261.816,225.464z M261.816,164.536   c7.968,0,14.456,6.488,14.456,14.464s-6.488,14.464-14.456,14.464c-7.96,0-14.44-6.488-14.44-14.464   C247.384,171.024,253.856,164.536,261.816,164.536z" data-original="#000A64" class="" data-old_color="#00e6b8"/>
	<path style="fill:#00E6B8" d="M91.344,154.736c2.192,1.032,4.512,1.52,6.8,1.52c6.008,0,11.768-3.4,14.488-9.192   c19.664-41.824,58.76-46.208,60.416-46.376c8.792-0.88,15.2-8.728,14.32-17.512c-0.88-8.792-8.616-15.2-17.52-14.32   c-5.992,0.6-59.336,7.528-86.16,64.6C79.904,141.448,83.344,150.976,91.344,154.736z" data-original="#000A64" class="" data-old_color="#00e6b8"/>
</g></g> </svg>
